{"glyphs":{"0":{"ha":819,"x_min":69,"x_max":750,"o":"m 69 0 l 69 972 l 750 972 l 750 0 l 69 0 m 458 194 l 458 778 l 361 778 l 361 194 l 458 194 z "},"1":{"ha":625,"x_min":69,"x_max":556,"o":"m 69 681 l 69 875 l 264 875 l 264 972 l 556 972 l 556 0 l 264 0 l 264 681 l 69 681 z "},"2":{"ha":819,"x_min":69,"x_max":750,"o":"m 69 0 l 69 583 l 458 583 l 458 778 l 69 778 l 69 972 l 750 972 l 750 389 l 361 389 l 361 194 l 750 194 l 750 0 l 69 0 z "},"3":{"ha":819,"x_min":69,"x_max":750,"o":"m 458 194 l 458 389 l 167 389 l 167 583 l 458 583 l 458 778 l 69 778 l 69 972 l 750 972 l 750 0 l 69 0 l 69 194 l 458 194 z "},"4":{"ha":1014,"x_min":69,"x_max":944,"o":"m 69 194 l 69 389 l 167 389 l 167 583 l 264 583 l 264 778 l 361 778 l 361 875 l 556 875 l 556 972 l 847 972 l 847 389 l 944 389 l 944 194 l 847 194 l 847 0 l 556 0 l 556 194 l 69 194 m 361 486 l 361 389 l 556 389 l 556 679 l 458 679 l 458 486 l 361 486 z "},"5":{"ha":819,"x_min":69,"x_max":750,"o":"m 69 389 l 69 972 l 750 972 l 750 778 l 361 778 l 361 583 l 750 583 l 750 0 l 69 0 l 69 194 l 458 194 l 458 389 l 69 389 z "},"6":{"ha":819,"x_min":69,"x_max":750,"o":"m 69 0 l 69 972 l 750 972 l 750 778 l 361 778 l 361 583 l 750 583 l 750 0 l 69 0 m 458 389 l 361 389 l 361 194 l 458 194 l 458 389 z "},"7":{"ha":819,"x_min":69,"x_max":750,"o":"m 167 194 l 264 194 l 264 389 l 361 389 l 361 583 l 458 583 l 458 778 l 69 778 l 69 972 l 750 972 l 750 583 l 653 583 l 653 389 l 556 389 l 556 194 l 458 194 l 458 0 l 167 0 l 167 194 z "},"8":{"ha":819,"x_min":69,"x_max":750,"o":"m 167 486 l 167 583 l 69 583 l 69 972 l 750 972 l 750 583 l 653 583 l 653 486 l 750 486 l 750 0 l 69 0 l 69 486 l 167 486 m 458 583 l 458 778 l 361 778 l 361 583 l 458 583 m 361 389 l 361 194 l 458 194 l 458 389 l 361 389 z "},"9":{"ha":819,"x_min":69,"x_max":750,"o":"m 750 972 l 750 0 l 69 0 l 69 194 l 458 194 l 458 389 l 69 389 l 69 972 l 750 972 m 361 583 l 458 583 l 458 778 l 361 778 l 361 583 z "},"\u0000":{"ha":0,"x_min":0,"x_max":0,"o":""},"\u001d":{"ha":0,"x_min":0,"x_max":0,"o":""}," ":{"ha":278,"x_min":0,"x_max":0,"o":""},"!":{"ha":333,"x_min":69,"x_max":361,"o":"m 69 389 l 69 972 l 361 972 l 361 389 l 69 389 m 69 0 l 69 292 l 361 292 l 361 0 l 69 0 z "},"\"":{"ha":722,"x_min":69,"x_max":750,"o":"m 69 486 l 69 972 l 361 972 l 361 486 l 69 486 m 458 486 l 458 972 l 750 972 l 750 486 l 458 486 z "},"#":{"ha":1014,"x_min":69,"x_max":944,"o":"m 944 583 l 847 583 l 847 389 l 944 389 l 944 194 l 847 194 l 847 0 l 556 0 l 556 194 l 458 194 l 458 0 l 167 0 l 167 194 l 69 194 l 69 389 l 167 389 l 167 583 l 69 583 l 69 778 l 167 778 l 167 972 l 458 972 l 458 778 l 556 778 l 556 972 l 847 972 l 847 778 l 944 778 l 944 583 m 556 389 l 556 583 l 458 583 l 458 389 l 556 389 z "},"%":{"ha":1111,"x_min":69,"x_max":944,"o":"m 69 0 l 69 292 l 361 292 l 361 0 l 69 0 m 264 194 l 264 486 l 556 486 l 556 194 l 264 194 m 458 486 l 458 778 l 750 778 l 750 486 l 458 486 m 653 681 l 653 972 l 944 972 l 944 681 l 653 681 m 69 681 l 69 972 l 361 972 l 361 681 l 69 681 m 653 0 l 653 292 l 944 292 l 944 0 l 653 0 z "},"&":{"ha":1014,"x_min":69,"x_max":944,"o":"m 69 0 l 69 582 l 167 583 l 167 972 l 653 972 l 653 583 l 847 583 l 847 389 l 750 389 l 750 194 l 944 194 l 944 0 l 69 0 m 458 583 l 458 778 l 361 778 l 361 583 l 458 583 m 361 389 l 361 194 l 458 194 l 458 389 l 361 389 z "},"'":{"ha":431,"x_min":69,"x_max":361,"o":"m 69 486 l 69 972 l 361 972 l 361 486 l 69 486 z "},"(":{"ha":819,"x_min":69,"x_max":750,"o":"m 69 194 l 69 778 l 264 778 l 264 972 l 750 972 l 750 778 l 557 778 l 557 583 l 361 583 l 361 389 l 556 389 l 556 194 l 750 194 l 750 0 l 264 0 l 264 194 l 69 194 z "},")":{"ha":819,"x_min":69,"x_max":750,"o":"m 750 778 l 750 194 l 556 194 l 556 0 l 69 0 l 69 194 l 264 194 l 264 389 l 458 389 l 458 583 l 263 583 l 263 778 l 69 778 l 69 972 l 556 972 l 556 778 l 750 778 z "},"*":{"ha":722,"x_min":69,"x_max":653,"o":"m 69 778 l 69 972 l 264 972 l 264 875 l 458 875 l 458 972 l 653 972 l 653 778 l 556 778 l 556 583 l 653 583 l 653 389 l 458 389 l 458 486 l 264 486 l 264 389 l 69 389 l 69 583 l 167 583 l 167 778 l 69 778 z "},"+":{"ha":722,"x_min":69,"x_max":653,"o":"m 264 583 l 264 778 l 458 778 l 458 583 l 653 583 l 653 389 l 458 389 l 458 194 l 264 194 l 264 389 l 69 389 l 69 583 l 264 583 z "},",":{"ha":431,"x_min":69,"x_max":361,"o":"m 167 0 l 69 0 l 69 292 l 361 292 l 361 -194 l 167 -194 l 167 0 z "},"-":{"ha":625,"x_min":69,"x_max":556,"o":"m 69 389 l 69 583 l 556 583 l 556 389 l 69 389 z "},".":{"ha":431,"x_min":69,"x_max":361,"o":"m 69 0 l 69 292 l 361 292 l 361 0 l 69 0 z "},"/":{"ha":1014,"x_min":69,"x_max":944,"o":"m 69 0 l 69 292 l 361 292 l 361 0 l 69 0 m 264 194 l 264 486 l 556 486 l 556 194 l 264 194 m 458 486 l 458 778 l 750 778 l 750 486 l 458 486 m 653 681 l 653 972 l 944 972 l 944 681 l 653 681 z "},":":{"ha":431,"x_min":69,"x_max":361,"o":"m 69 486 l 69 778 l 361 778 l 361 486 l 69 486 m 69 0 l 69 292 l 361 292 l 361 0 l 69 0 z "},";":{"ha":431,"x_min":69,"x_max":361,"o":"m 69 486 l 69 778 l 361 778 l 361 486 l 69 486 m 167 0 l 69 0 l 69 292 l 361 292 l 361 -194 l 167 -194 l 167 0 z "},"=":{"ha":722,"x_min":69,"x_max":653,"o":"m 69 194 l 69 389 l 653 389 l 653 194 l 69 194 m 69 583 l 69 778 l 653 778 l 653 583 l 69 583 z "},"?":{"ha":917,"x_min":69,"x_max":847,"o":"m 69 583 l 69 875 l 167 875 l 167 972 l 750 972 l 750 875 l 847 875 l 847 486 l 653 486 l 653 389 l 361 389 l 361 583 l 458 583 l 458 778 l 264 778 l 264 583 l 69 583 m 361 0 l 361 292 l 653 292 l 653 0 l 361 0 z "},"A":{"ha":819,"x_min":69,"x_max":750,"o":"m 69 0 l 69 972 l 750 972 l 750 0 l 458 0 l 458 389 l 361 389 l 361 0 l 69 0 m 458 583 l 458 778 l 361 778 l 361 583 l 458 583 z "},"B":{"ha":819,"x_min":69,"x_max":750,"o":"m 69 0 l 69 972 l 750 972 l 750 583 l 653 583 l 653 486 l 750 486 l 750 0 l 69 0 m 458 583 l 458 778 l 361 778 l 361 583 l 458 583 m 361 389 l 361 194 l 458 194 l 458 389 l 361 389 z "},"C":{"ha":722,"x_min":69,"x_max":653,"o":"m 653 194 l 653 0 l 69 0 l 69 972 l 653 972 l 653 778 l 361 778 l 361 194 l 653 194 z "},"D":{"ha":819,"x_min":69,"x_max":750,"o":"m 69 0 l 69 972 l 653 972 l 653 875 l 750 875 l 750 97 l 653 97 l 653 0 l 69 0 m 458 194 l 458 778 l 361 778 l 361 194 l 458 194 z "},"E":{"ha":819,"x_min":69,"x_max":750,"o":"m 361 389 l 361 194 l 750 194 l 750 0 l 69 0 l 69 972 l 750 972 l 750 778 l 361 778 l 361 583 l 653 583 l 653 389 l 361 389 z "},"F":{"ha":819,"x_min":69,"x_max":750,"o":"m 361 389 l 361 0 l 69 0 l 69 972 l 750 972 l 750 778 l 361 778 l 361 583 l 653 583 l 653 389 l 361 389 z "},"G":{"ha":819,"x_min":69,"x_max":750,"o":"m 458 194 l 458 583 l 750 583 l 750 0 l 69 0 l 69 972 l 750 972 l 750 778 l 361 778 l 361 194 l 458 194 z "},"H":{"ha":819,"x_min":69,"x_max":750,"o":"m 69 0 l 69 972 l 361 972 l 361 583 l 458 583 l 458 972 l 750 972 l 750 0 l 458 0 l 458 389 l 361 389 l 361 0 l 69 0 z "},"I":{"ha":431,"x_min":69,"x_max":361,"o":"m 69 0 l 69 972 l 361 972 l 361 0 l 69 0 z "},"J":{"ha":819,"x_min":69,"x_max":750,"o":"m 458 194 l 458 972 l 750 972 l 750 0 l 69 0 l 69 389 l 361 389 l 361 194 l 458 194 z "},"K":{"ha":819,"x_min":69,"x_max":750,"o":"m 69 0 l 69 972 l 361 972 l 361 681 l 458 681 l 458 972 l 750 972 l 750 583 l 556 583 l 556 486 l 750 486 l 750 0 l 458 0 l 458 292 l 361 292 l 361 0 l 69 0 z "},"L":{"ha":722,"x_min":69,"x_max":653,"o":"m 69 0 l 69 972 l 361 972 l 361 194 l 653 194 l 653 0 l 69 0 z "},"M":{"ha":1111,"x_min":69,"x_max":1042,"o":"m 361 389 l 361 0 l 69 0 l 69 972 l 361 972 l 361 778 l 458 778 l 458 583 l 653 583 l 653 778 l 750 778 l 750 972 l 1042 972 l 1042 0 l 750 0 l 750 389 l 653 389 l 653 194 l 458 194 l 458 389 l 361 389 z "},"N":{"ha":917,"x_min":69,"x_max":847,"o":"m 361 389 l 361 0 l 69 0 l 69 972 l 361 972 l 361 778 l 458 778 l 458 583 l 556 583 l 556 972 l 847 972 l 847 0 l 556 0 l 556 194 l 458 194 l 458 389 l 361 389 z "},"O":{"ha":819,"x_min":69,"x_max":750,"o":"m 69 0 l 69 972 l 750 972 l 750 0 l 69 0 m 458 194 l 458 778 l 361 778 l 361 194 l 458 194 z "},"P":{"ha":819,"x_min":69,"x_max":750,"o":"m 69 0 l 69 972 l 750 972 l 750 389 l 361 389 l 361 0 l 69 0 m 458 583 l 458 778 l 361 778 l 361 583 l 458 583 z "},"Q":{"ha":847,"x_min":69,"x_max":847,"o":"m 69 0 l 69 972 l 750 972 l 750 194 l 847 194 l 847 0 l 69 0 m 458 194 l 458 778 l 361 778 l 361 194 l 458 194 z "},"R":{"ha":819,"x_min":69,"x_max":750,"o":"m 69 0 l 69 972 l 750 972 l 750 583 l 653 583 l 653 486 l 750 486 l 750 0 l 458 0 l 458 389 l 361 389 l 361 0 l 69 0 m 458 583 l 458 778 l 361 778 l 361 583 l 458 583 z "},"S":{"ha":819,"x_min":69,"x_max":750,"o":"m 69 389 l 69 972 l 750 972 l 750 778 l 361 778 l 361 583 l 750 583 l 750 0 l 69 0 l 69 194 l 458 194 l 458 389 l 69 389 z "},"T":{"ha":819,"x_min":69,"x_max":750,"o":"m 556 778 l 556 0 l 264 0 l 264 778 l 69 778 l 69 972 l 750 972 l 750 778 l 556 778 z "},"U":{"ha":819,"x_min":69,"x_max":750,"o":"m 69 0 l 69 972 l 361 972 l 361 194 l 458 194 l 458 972 l 750 972 l 750 0 l 69 0 z "},"V":{"ha":819,"x_min":69,"x_max":750,"o":"m 69 389 l 69 972 l 361 972 l 361 583 l 458 583 l 458 972 l 750 972 l 750 389 l 653 389 l 653 194 l 556 194 l 556 0 l 264 0 l 264 194 l 167 194 l 167 389 l 69 389 z "},"W":{"ha":1111,"x_min":69,"x_max":1042,"o":"m 361 972 l 361 486 l 458 486 l 458 681 l 653 681 l 653 486 l 750 486 l 750 972 l 1042 972 l 1042 194 l 944 194 l 944 0 l 653 0 l 653 292 l 458 292 l 458 0 l 167 0 l 167 194 l 69 194 l 69 972 l 361 972 z "},"X":{"ha":819,"x_min":69,"x_max":750,"o":"m 69 0 l 69 486 l 264 486 l 264 583 l 69 583 l 69 972 l 361 972 l 361 681 l 458 681 l 458 972 l 750 972 l 750 583 l 556 583 l 556 486 l 750 486 l 750 0 l 458 0 l 458 292 l 361 292 l 361 0 l 69 0 z "},"Y":{"ha":819,"x_min":69,"x_max":750,"o":"m 69 486 l 69 972 l 361 972 l 361 681 l 458 681 l 458 972 l 750 972 l 750 486 l 556 486 l 556 0 l 264 0 l 264 486 l 69 486 z "},"Z":{"ha":819,"x_min":69,"x_max":750,"o":"m 69 0 l 69 486 l 264 486 l 264 583 l 458 583 l 458 778 l 69 778 l 69 972 l 750 972 l 750 486 l 556 486 l 556 389 l 361 389 l 361 194 l 750 194 l 750 0 l 69 0 z "},"_":{"ha":1111,"x_min":69,"x_max":1042,"o":"m 69 -194 l 69 0 l 1042 0 l 1042 -194 l 69 -194 z "},"a":{"ha":819,"x_min":69,"x_max":750,"o":"m 69 0 l 69 972 l 750 972 l 750 0 l 458 0 l 458 389 l 361 389 l 361 0 l 69 0 m 458 583 l 458 778 l 361 778 l 361 583 l 458 583 z "},"b":{"ha":819,"x_min":69,"x_max":750,"o":"m 69 0 l 69 972 l 750 972 l 750 583 l 653 583 l 653 486 l 750 486 l 750 0 l 69 0 m 458 583 l 458 778 l 361 778 l 361 583 l 458 583 m 361 389 l 361 194 l 458 194 l 458 389 l 361 389 z "},"c":{"ha":722,"x_min":69,"x_max":653,"o":"m 653 194 l 653 0 l 69 0 l 69 972 l 653 972 l 653 778 l 361 778 l 361 194 l 653 194 z "},"d":{"ha":819,"x_min":69,"x_max":750,"o":"m 69 0 l 69 972 l 653 972 l 653 875 l 750 875 l 750 97 l 653 97 l 653 0 l 69 0 m 458 194 l 458 778 l 361 778 l 361 194 l 458 194 z "},"e":{"ha":819,"x_min":69,"x_max":750,"o":"m 361 389 l 361 194 l 750 194 l 750 0 l 69 0 l 69 972 l 750 972 l 750 778 l 361 778 l 361 583 l 653 583 l 653 389 l 361 389 z "},"f":{"ha":819,"x_min":69,"x_max":750,"o":"m 361 389 l 361 0 l 69 0 l 69 972 l 750 972 l 750 778 l 361 778 l 361 583 l 653 583 l 653 389 l 361 389 z "},"g":{"ha":819,"x_min":69,"x_max":750,"o":"m 458 194 l 458 583 l 750 583 l 750 0 l 69 0 l 69 972 l 750 972 l 750 778 l 361 778 l 361 194 l 458 194 z "},"h":{"ha":819,"x_min":69,"x_max":750,"o":"m 69 0 l 69 972 l 361 972 l 361 583 l 458 583 l 458 972 l 750 972 l 750 0 l 458 0 l 458 389 l 361 389 l 361 0 l 69 0 z "},"i":{"ha":431,"x_min":69,"x_max":361,"o":"m 69 0 l 69 972 l 361 972 l 361 0 l 69 0 z "},"j":{"ha":819,"x_min":69,"x_max":750,"o":"m 458 194 l 458 972 l 750 972 l 750 0 l 69 0 l 69 389 l 361 389 l 361 194 l 458 194 z "},"k":{"ha":819,"x_min":69,"x_max":750,"o":"m 69 0 l 69 972 l 361 972 l 361 681 l 458 681 l 458 972 l 750 972 l 750 583 l 556 583 l 556 486 l 750 486 l 750 0 l 458 0 l 458 292 l 361 292 l 361 0 l 69 0 z "},"l":{"ha":722,"x_min":69,"x_max":653,"o":"m 69 0 l 69 972 l 361 972 l 361 194 l 653 194 l 653 0 l 69 0 z "},"m":{"ha":1111,"x_min":69,"x_max":1042,"o":"m 361 389 l 361 0 l 69 0 l 69 972 l 361 972 l 361 778 l 458 778 l 458 583 l 653 583 l 653 778 l 750 778 l 750 972 l 1042 972 l 1042 0 l 750 0 l 750 389 l 653 389 l 653 194 l 458 194 l 458 389 l 361 389 z "},"n":{"ha":917,"x_min":69,"x_max":847,"o":"m 361 389 l 361 0 l 69 0 l 69 972 l 361 972 l 361 778 l 458 778 l 458 583 l 556 583 l 556 972 l 847 972 l 847 0 l 556 0 l 556 194 l 458 194 l 458 389 l 361 389 z "},"o":{"ha":819,"x_min":69,"x_max":750,"o":"m 69 0 l 69 972 l 750 972 l 750 0 l 69 0 m 458 194 l 458 778 l 361 778 l 361 194 l 458 194 z "},"p":{"ha":819,"x_min":69,"x_max":750,"o":"m 69 0 l 69 972 l 750 972 l 750 389 l 361 389 l 361 0 l 69 0 m 458 583 l 458 778 l 361 778 l 361 583 l 458 583 z "},"q":{"ha":847,"x_min":69,"x_max":847,"o":"m 69 0 l 69 972 l 750 972 l 750 194 l 847 194 l 847 0 l 69 0 m 458 194 l 458 778 l 361 778 l 361 194 l 458 194 z "},"r":{"ha":819,"x_min":69,"x_max":750,"o":"m 69 0 l 69 972 l 750 972 l 750 583 l 653 583 l 653 486 l 750 486 l 750 0 l 458 0 l 458 389 l 361 389 l 361 0 l 69 0 m 458 583 l 458 778 l 361 778 l 361 583 l 458 583 z "},"s":{"ha":819,"x_min":69,"x_max":750,"o":"m 69 389 l 69 972 l 750 972 l 750 778 l 361 778 l 361 583 l 750 583 l 750 0 l 69 0 l 69 194 l 458 194 l 458 389 l 69 389 z "},"t":{"ha":819,"x_min":69,"x_max":750,"o":"m 556 778 l 556 0 l 264 0 l 264 778 l 69 778 l 69 972 l 750 972 l 750 778 l 556 778 z "},"u":{"ha":819,"x_min":69,"x_max":750,"o":"m 69 0 l 69 972 l 361 972 l 361 194 l 458 194 l 458 972 l 750 972 l 750 0 l 69 0 z "},"v":{"ha":819,"x_min":69,"x_max":750,"o":"m 69 389 l 69 972 l 361 972 l 361 583 l 458 583 l 458 972 l 750 972 l 750 389 l 653 389 l 653 194 l 556 194 l 556 0 l 264 0 l 264 194 l 167 194 l 167 389 l 69 389 z "},"w":{"ha":1111,"x_min":69,"x_max":1042,"o":"m 361 972 l 361 486 l 458 486 l 458 681 l 653 681 l 653 486 l 750 486 l 750 972 l 1042 972 l 1042 194 l 944 194 l 944 0 l 653 0 l 653 292 l 458 292 l 458 0 l 167 0 l 167 194 l 69 194 l 69 972 l 361 972 z "},"x":{"ha":819,"x_min":69,"x_max":750,"o":"m 69 0 l 69 486 l 264 486 l 264 583 l 69 583 l 69 972 l 361 972 l 361 681 l 458 681 l 458 972 l 750 972 l 750 583 l 556 583 l 556 486 l 750 486 l 750 0 l 458 0 l 458 292 l 361 292 l 361 0 l 69 0 z "},"y":{"ha":819,"x_min":69,"x_max":750,"o":"m 69 486 l 69 972 l 361 972 l 361 681 l 458 681 l 458 972 l 750 972 l 750 486 l 556 486 l 556 0 l 264 0 l 264 486 l 69 486 z "},"z":{"ha":819,"x_min":69,"x_max":750,"o":"m 69 0 l 69 486 l 264 486 l 264 583 l 458 583 l 458 778 l 69 778 l 69 972 l 750 972 l 750 486 l 556 486 l 556 389 l 361 389 l 361 194 l 750 194 l 750 0 l 69 0 z "}," ":{"ha":694,"x_min":0,"x_max":0,"o":""},"©":{"ha":1111,"x_min":69,"x_max":1042,"o":"m 361 292 l 361 681 l 458 681 l 458 778 l 653 778 l 653 681 l 750 681 l 750 583 l 556 583 l 556 389 l 750 389 l 750 292 l 653 292 l 653 194 l 458 194 l 458 292 l 361 292 m 944 194 l 944 97 l 750 97 l 750 194 l 847 194 l 847 778 l 750 778 l 750 875 l 264 875 l 264 972 l 847 972 l 847 875 l 944 875 l 944 778 l 1042 778 l 1042 194 l 944 194 m 264 778 l 264 194 l 361 194 l 361 97 l 847 97 l 847 0 l 264 0 l 264 97 l 167 97 l 167 194 l 69 194 l 69 778 l 167 778 l 167 875 l 361 875 l 361 778 l 264 778 z "},"®":{"ha":1014,"x_min":69,"x_max":847,"o":"m 264 486 l 264 875 l 410 875 l 410 486 l 264 486 m 410 778 l 410 875 l 653 875 l 653 778 l 410 778 m 410 583 l 410 681 l 604 681 l 604 583 l 410 583 m 507 486 l 507 583 l 653 583 l 653 486 l 507 486 m 507 681 l 507 778 l 653 778 l 653 681 l 507 681 m 264 972 l 264 1069 l 653 1069 l 653 972 l 264 972 m 264 292 l 264 389 l 653 389 l 653 292 l 264 292 m 69 486 l 69 875 l 167 875 l 167 486 l 69 486 m 750 486 l 750 875 l 847 875 l 847 486 l 750 486 m 653 875 l 653 972 l 750 972 l 750 875 l 653 875 m 653 389 l 653 486 l 750 486 l 750 389 l 653 389 m 167 389 l 167 486 l 264 486 l 264 389 l 167 389 m 167 875 l 167 972 l 264 972 l 264 875 l 167 875 z "},"°":{"ha":722,"x_min":69,"x_max":653,"o":"m 69 486 l 69 875 l 167 875 l 167 972 l 556 972 l 556 875 l 653 875 l 653 486 l 556 486 l 556 389 l 167 389 l 167 486 l 69 486 m 264 778 l 264 583 l 458 583 l 458 778 l 264 778 z "},"¶":{"ha":1111,"x_min":69,"x_max":1042,"o":"m 1042 972 l 1042 -194 l 750 -194 l 750 389 l 653 389 l 653 -194 l 361 -194 l 361 389 l 167 389 l 167 583 l 69 583 l 69 778 l 167 778 l 167 972 l 1042 972 m 750 583 l 750 778 l 653 778 l 653 583 l 750 583 z "},"ƒ":{"ha":819,"x_min":69,"x_max":750,"o":"m 313 681 l 313 535 l 361 535 l 361 583 l 458 583 l 458 535 l 507 535 l 507 681 l 458 681 l 458 729 l 361 729 l 361 681 l 313 681 m 264 826 l 264 729 l 361 729 l 361 826 l 264 826 m 458 826 l 458 729 l 556 729 l 556 826 l 458 826 m 69 0 l 69 972 l 750 972 l 750 0 l 458 0 l 458 389 l 361 389 l 361 0 l 69 0 z "},"–":{"ha":722,"x_min":69,"x_max":653,"o":"m 69 389 l 69 583 l 653 583 l 653 389 l 69 389 z "},"—":{"ha":1111,"x_min":69,"x_max":1042,"o":"m 69 389 l 69 583 l 1042 583 l 1042 389 l 69 389 z "},"‘":{"ha":528,"x_min":69,"x_max":361,"o":"m 361 778 l 361 486 l 69 486 l 69 972 l 264 972 l 264 778 l 361 778 z "},"’":{"ha":528,"x_min":69,"x_max":361,"o":"m 69 681 l 69 972 l 361 972 l 361 486 l 167 486 l 167 681 l 69 681 z "},"“":{"ha":917,"x_min":69,"x_max":750,"o":"m 750 778 l 750 486 l 458 486 l 458 972 l 653 972 l 653 778 l 750 778 m 361 778 l 361 486 l 69 486 l 69 972 l 264 972 l 264 778 l 361 778 z "},"”":{"ha":917,"x_min":69,"x_max":750,"o":"m 69 681 l 69 972 l 361 972 l 361 486 l 167 486 l 167 681 l 69 681 m 458 681 l 458 972 l 750 972 l 750 486 l 556 486 l 556 681 l 458 681 z "},"•":{"ha":528,"x_min":69,"x_max":458,"o":"m 69 292 l 69 681 l 458 681 l 458 292 l 69 292 z "},"…":{"ha":1208,"x_min":69,"x_max":1139,"o":"m 69 0 l 69 292 l 361 292 l 361 0 l 69 0 m 458 0 l 458 292 l 750 292 l 750 0 l 458 0 m 847 0 l 847 292 l 1139 292 l 1139 0 l 847 0 z "},"™":{"ha":1403,"x_min":69,"x_max":1333,"o":"m 215 486 l 215 875 l 69 875 l 69 972 l 556 972 l 556 875 l 410 875 l 410 486 l 215 486 m 653 486 l 653 972 l 847 972 l 847 486 l 653 486 m 847 681 l 847 875 l 944 875 l 944 681 l 847 681 m 944 583 l 944 778 l 1042 778 l 1042 583 l 944 583 m 1042 681 l 1042 875 l 1139 875 l 1139 681 l 1042 681 m 1139 486 l 1139 972 l 1333 972 l 1333 486 l 1139 486 z "}}}
